<?xml version="1.0" standalone="no"?>
<!DOCTYPE svg PUBLIC "-//W3C//DTD SVG 1.0//EN" "http://www.w3.org/TR/2001/REC-SVG-20010904/DTD/svg10.dtd">
<svg xmlns="http://www.w3.org/2000/svg" xmlns:xlink="http://www.w3.org/1999/xlink" id="body_1" width="1024" height="768">

<g transform="matrix(2.0610976 0 0 2.0610976 17.048023 -0)">
	<g>
		<g>
            <path d="M158.30182 80.31209C 106.9956 120.36122 76.3919 288.94946 172.59344 290.14655C 223.23198 290.77655 313.30005 324.05682 372.68134 354.94962C 430.4215 384.98834 417.58893 220.95467 358.38968 145.11562C 299.19043 69.276566 209.608 40.263 158.30182 80.31209z" stroke="none" fill="#F9E0C0" fill-rule="nonzero" />
            <path d="M398.13824 371.62158C 393.7818 371.62158 388.9986 370.29248 383.8697 367.6236L383.8697 367.6236L384.3111 366.77594C 396.2105 372.9654 405.77203 371.86383 412.7271 363.50055C 425.43317 348.22516 428.11774 309.87946 419.732 263.42535C 410.9273 214.64703 391.60114 167.5025 368.0357 137.31207C 336.6861 97.15088 296.6402 67.65478 255.273 54.25732C 213.97319 40.87939 176.30814 45.15967 149.21634 66.30713L149.21634 66.30713L148.62845 65.55322C 175.97806 44.203613 213.95755 39.868652 255.5679 53.34722C 297.11478 66.8023 337.32376 96.41362 368.78958 136.72418C 392.4468 167.03082 411.84232 214.3316 420.67337 263.25543C 429.10794 309.98004 426.34525 348.62555 413.46243 364.11188C 409.30524 369.10986 404.12555 371.62158 398.13824 371.62158z" stroke="none" fill="#F4C5A2" fill-rule="nonzero" />
            <path d="M192.02773 149.82141C 192.42107 149.30217 192.4738 148.60068 192.16252 148.02846C 191.85124 147.45624 191.23366 147.1194 190.58405 147.16751C 190.58405 147.16751 185.67198 149.68709 183.71646 149.56224C 183.71646 149.56224 174.57675 157.07643 192.02773 149.82141z" stroke="none" fill="#DD765E" fill-rule="nonzero" />
            <path d="M256.41016 91.73219C 256.41348 95.12791 254.60379 98.26709 251.66357 99.9659C 248.72334 101.66471 245.0999 101.66471 242.15967 99.9659C 239.21945 98.26709 237.40977 95.12791 237.41309 91.73219C 237.41309 86.486305 241.66571 79.22779 246.91162 79.22779C 252.15753 79.22779 256.41016 86.4863 256.41016 91.73219z" stroke="none" fill="#FFBA55" fill-rule="nonzero" />
            <path d="M249.8906 80.05128L243.85567 80.05128L243.85567 71.82993C 243.85568 71.301636 244.28395 70.873375 244.81223 70.873375L244.81223 70.873375L248.934 70.873375C 249.4623 70.873375 249.89056 71.301636 249.89056 71.82993L249.89056 71.82993L249.8906 80.05128z" stroke="none" fill="#F65B2B" fill-rule="nonzero" />
            <path d="M246.912 0.478L246.912 56.753" stroke="#7CA1B1" stroke-width="0.957" fill="none" />
            <path d="M246.912 56.753L213.811 102.93L225.866 116.824L246.912 116.824L246.912 56.753L246.912 56.753" stroke="#7CA1B1" stroke-width="0.957" fill="none" />
            <path d="M246.912 56.753L230.361 103.134L235.47 116.824" stroke="#7CA1B1" stroke-width="0.957" fill="none" />
            <path d="M213.811 102.93L246.912 102.93" stroke="#7CA1B1" stroke-width="0.957" fill="none" />
            <path d="M246.912 56.753L280.012 102.93L267.957 116.824L246.912 116.824L246.912 56.753L246.912 56.753" stroke="#7CA1B1" stroke-width="0.957" fill="none" />
            <path d="M246.912 56.753L263.462 103.134L258.354 116.824" stroke="#7CA1B1" stroke-width="0.957" fill="none" />
            <path d="M280.012 102.93L246.912 102.93" stroke="#7CA1B1" stroke-width="0.957" fill="none" />
            <path d="M239.801 0.478L254.023 0.478" stroke="#9857BD" stroke-width="0.957" fill="none" />
            <path d="M182.3494 151.18307C 182.3494 151.18307 179.36761 153.54536 177.01431 153.87645" stroke="#DD765E" stroke-width="0.566" stroke-linecap="square" fill="none" />
            <path d="M103.188 139.0576C 105.685455 134.39551 108.149796 127.40001 107.86486 117.25388C 105.81133 113.35702 102.95614 109.938995 99.48705 107.2246C 101.07481 107.25866 102.35089 107.35192 103.57405 107.25599C 111.69953 106.61885 121.72605 97.27948 120.74805 88.43392C 119.89573 80.72457 110.99305 76.18302 108.82712 75.07792C 103.342125 71.99243 96.64891 71.9742 91.14718 75.02974C 87.86662 76.85303 85.144936 79.535835 83.27462 82.78982C 81.32356 85.96873 81.37962 86.278404 77.836914 89.31573C 73.91468 92.67846 71.28204 93.756454 69.19305 97.485466C 67.87025 99.84695 67.913414 103.78832 68.13535 106.68706C 62.303684 111.5795 59.744102 118.31964 59.070145 120.09761C 56.168926 127.7519 56.116924 137.04648 56.103203 139.49953C 56.072483 144.9773 56.738583 148.63744 54.343464 152.70116C 52.216034 156.31082 49.950653 156.37457 47.292465 159.27333C 42.342976 164.6708 40.682304 174.82549 44.434956 181.25871C 50.588676 191.80829 70.75519 191.41786 78.33342 183.32158C 83.438156 177.86778 78.98628 173.0249 83.890976 162.26733C 89.19847 150.62639 97.03352 150.54659 103.188 139.0576z" stroke="none" fill="#160B07" fill-rule="nonzero" />
            <path d="M111.982 172.139L80.696 171.797L78.054 192.102L112.367 193.233L111.982 172.139L111.982 172.139" stroke="none" fill="#F9977A" fill-rule="nonzero" />
            <path d="M111.53686 119.0142L116.07512 122.622345L119.32999 136.15964L88.76311 135.78264L92.11438 119.79081C 92.11438 119.79081 95.06538 119.44002 97.5679 111.24195L97.5679 111.24195L111.53686 119.0142z" stroke="none" fill="#F9977A" fill-rule="nonzero" />
            <path d="M110.57177 113.01057C 110.57177 113.01057 104.55177 117.40871 97.6403 111.87057C 97.6403 111.87057 99.9313 121.558395 111.53686 119.01424C 110.30325 117.27026 109.94688 115.0533 110.57177 113.01057z" stroke="none" fill="#DD765E" fill-rule="nonzero" />
            <path d="M118.23924 93.10178C 115.97859 81.99378 107.99224 74.24135 100.40116 75.786224C 94.54216 76.97862 90.63477 83.3627 90.19445 91.320625C 89.657196 90.966545 88.990295 90.86975 88.37455 91.05649C 86.72574 91.669205 86.37855 94.82836 87.59911 98.11258C 88.62957 100.88548 90.447014 102.85353 91.98065 103.03269C 95.18293 111.74169 102.03118 117.34618 108.58773 116.01186C 116.17878 114.4669 120.49991 104.20975 118.23924 93.10178z" stroke="none" fill="#F9977A" fill-rule="nonzero" />
            <path d="M109.0973 92.20435C 108.90226 93.506516 109.05731 94.83713 109.54654 96.05957C 109.989235 97.28929 110.564384 98.46719 111.26185 99.57251L111.26185 99.57251L111.83951 100.38843C 112.09993 100.724655 112.221794 101.147804 112.180084 101.57104C 112.03346 102.33652 111.55658 102.998314 110.87683 103.37964C 109.617004 104.04086 108.12035 104.07447 106.83212 103.47046C 107.484634 103.580956 108.14937 103.59994 108.80712 103.526855C 109.433365 103.480644 110.03456 103.26186 110.54403 102.894775C 111.020775 102.569145 111.349754 102.06853 111.45947 101.50171C 111.47625 101.25034 111.39199 101.002686 111.2254 100.813705C 111.04401 100.562 110.82373 100.286606 110.62988 100.00194C 109.89429 98.84266 109.34205 97.576775 108.992676 96.24901C 108.5712 94.92746 108.60806 93.50235 109.0973 92.20435z" stroke="none" fill="#DD765E" fill-rule="nonzero" />
            <path d="M97.23911 94.9617C 97.373344 94.80348 100.57764 91.10296 104.924416 91.86689C 101.175545 91.20819 98.27042 94.56617 98.24133 94.6002L98.24133 94.6002L97.23911 94.9617zM111.31669 90.99857C 113.16469 91.18141 114.77477 92.336266 115.54043 94.02811C 116.30608 95.71994 116.11099 97.691734 115.02865 99.20074C 113.946304 100.70973 112.14113 101.52667 110.29313 101.343834L111.31669 90.99857L110.29313 101.343834zM98.37153 97.30615C 98.22598 94.82965 99.62578 92.5208 101.88886 91.50459C 104.151955 90.48839 106.807556 90.97622 108.56173 92.73039C 110.3159 94.484566 110.803734 97.14017 109.78753 99.40326C 108.771324 101.66634 106.46247 103.06614 103.98597 102.92059L103.98597 102.92059L103.98597 115.065254C 104.3554 116.66999 104.097206 118.35524 103.26429 119.775764L98.37153 97.30615L103.26429 119.775764z" stroke="none" fill="#160B07" fill-rule="nonzero" />
            <path d="M104.406006 96.325C 104.406006 96.65692 104.28865 96.94024 104.05395 97.17494C 103.819244 97.40965 103.535934 97.52701 103.204 97.527C 102.872086 97.52701 102.58877 97.40965 102.35406 97.17494C 102.119354 96.94024 102.002 96.65692 102.002 96.325C 102.002 95.99307 102.119354 95.70976 102.35406 95.47505C 102.58877 95.24035 102.872086 95.12299 103.204 95.12299C 103.535934 95.12299 103.819244 95.24035 104.05395 95.47505C 104.28865 95.70976 104.406006 95.99307 104.406006 96.325C 104.406006 96.33899 104.40576 96.35297 104.40527 96.36694" stroke="none" fill="#160B07" fill-rule="nonzero" />
            <path d="M115.84801 94.895C 115.848015 95.22692 115.73066 95.51024 115.49595 95.74494C 115.261246 95.979645 114.977936 96.097 114.646 96.097C 114.31409 96.097 114.03077 95.979645 113.79606 95.74494C 113.561356 95.51024 113.444 95.22692 113.444 94.895C 113.444 94.56307 113.561356 94.279755 113.79606 94.04505C 114.03077 93.81035 114.31409 93.69299 114.646 93.69299C 114.977936 93.69299 115.261246 93.81035 115.49595 94.04505C 115.73066 94.279755 115.848015 94.56307 115.84801 94.895C 115.848015 94.90899 115.84777 94.92297 115.847275 94.93694" stroke="none" fill="#160B07" fill-rule="nonzero" />
            <path d="M110.64075 96.12817C 111.05128 95.55971 111.55872 95.067986 112.13984 94.67554C 112.72472 94.26339 113.38306 93.966965 114.079346 93.802246C 114.7892 93.63891 115.52989 93.669266 116.224 93.89014C 116.90035 94.10692 117.510056 94.493004 117.99521 95.01172C 117.41248 94.674835 116.78057 94.43132 116.12247 94.29004C 115.48422 94.168884 114.82783 94.18094 114.194466 94.32544C 112.89817 94.67466 111.68821 95.288445 110.64075 96.12817z" stroke="none" fill="#160B07" fill-rule="nonzero" />
            <path d="M88.18046 94.89844C 88.19379 94.386665 88.36509 93.89155 88.67087 93.48096C 88.85146 93.23528 89.11065 93.05876 89.405396 92.980705C 89.7247 92.90621 90.06053 92.96237 90.33823 93.1367C 90.78207 93.43069 91.130554 93.84771 91.341034 94.3367C 91.55393 94.77924 91.69202 95.254005 91.749664 95.7417C 91.40518 95.38281 91.12839 95.00415 90.83834 94.65796C 90.59455 94.325745 90.29769 94.03597 89.95968 93.800285C 89.68813 93.61479 89.32189 93.65501 89.09707 93.89501C 88.756714 94.19594 88.44944 94.53232 88.18046 94.89844z" stroke="none" fill="#DD765E" fill-rule="nonzero" />
            <path d="M90.14722 98.53662C 90.20398 98.101654 90.22272 97.66258 90.20322 97.22437C 90.18738 96.80103 90.157166 96.3811 90.105316 95.96045C 90.02591 95.113525 89.87189 94.27197 89.84177 93.332275C 90.13311 93.69432 90.36698 94.09906 90.53519 94.53227C 90.70302 94.96567 90.81394 95.41899 90.86519 95.880905C 90.91772 96.34998 90.89378 96.824486 90.79433 97.285904C 90.70613 97.75732 90.481064 98.192314 90.14722 98.53662z" stroke="none" fill="#DD765E" fill-rule="nonzero" />
            <path d="M91.922005 101.508C 91.922005 102.16716 91.688965 102.72978 91.22287 103.19587C 90.75678 103.66196 90.19416 103.895004 89.535 103.895004C 88.875854 103.895004 88.31323 103.66196 87.84714 103.19587C 87.38105 102.72978 87.14801 102.16716 87.148 101.508C 87.14801 100.84885 87.38105 100.286224 87.84714 99.82014C 88.31323 99.35405 88.875854 99.12101 89.535 99.121C 90.19416 99.12101 90.75678 99.35405 91.22287 99.82014C 91.688965 100.286224 91.922005 100.84885 91.922005 101.508C 91.922005 101.53578 91.921524 101.56355 91.92055 101.59131" stroke="none" fill="#FFCB33" fill-rule="nonzero" />
            <path d="M104.40637 81.72714C 103.079056 82.81566 96.22767 93.589615 93.75844 94.79489C 93.48364 94.94771 93.1683 95.01176 92.85565 94.97825C 91.889824 94.837006 91.50065 93.586136 90.426994 91.82596C 89.615616 90.49578 89.2626 90.26704 88.789635 89.52182C 87.09365 86.549515 86.91368 82.94744 88.30495 79.82089C 89.617805 77.25145 91.8567 75.27585 94.56956 74.293C 100.19503 71.88389 105.63203 73.98826 107.01092 74.52194C 115.29506 77.7283 118.83192 85.9297 118.53911 86.17104C 118.19493 86.45466 111.21188 76.146 104.40637 81.72714z" stroke="none" fill="#160B07" fill-rule="nonzero" />
            <path d="M110.641 108.853C 110.641 109.6204 110.36968 110.27542 109.82705 110.81805C 109.28442 111.36069 108.6294 111.632 107.862 111.631996C 107.094604 111.632 106.43959 111.36069 105.89695 110.81805C 105.354324 110.27542 105.08301 109.6204 105.083 108.853C 105.08301 108.0856 105.354324 107.43059 105.89695 106.88795C 106.43959 106.34532 107.094604 106.074005 107.862 106.074C 108.6294 106.074005 109.28442 106.34532 109.82705 106.88795C 110.36968 107.43059 110.641 108.0856 110.641 108.853C 110.641 108.88534 110.640434 108.91766 110.639305 108.94998" stroke="none" fill="#DD2F22" fill-rule="nonzero" />
            <path d="M58.4304 334.00504C 58.4304 334.00504 41.60565 348.9194 42.494522 350.45468C 43.383392 351.98996 74.66367 377.60233 70.98688 370.10284L70.98688 370.10284L65.71274 360.63556C 63.360527 356.41324 63.69629 351.2052 66.5712 347.3199L66.5712 347.3199L70.7511 341.6709L58.4304 334.00504z" stroke="none" fill="#F9977A" fill-rule="nonzero" />
            <path d="M66.70462 362.41605L56.76245 358.65582C 57.04925 356.79788 57.21453 350.86282 50.492672 341.3413C 50.39092 341.19833 50.23196 341.10678 50.05725 341.0905C 49.88254 341.07422 49.7094 341.13483 49.582973 341.2565L49.582973 341.2565L48.341473 342.45624C 48.130337 342.66043 48.097668 342.9873 48.264214 343.22925C 50.92065 347.1414 52.792664 351.53186 53.776443 356.15717L53.776443 356.15717L43.977604 347.95764C 41.703094 349.00253 40.506702 352.3914 40.506702 352.3914C 42.460503 354.36157 54.77785 371.25467 65.52231 371.25467C 70.82078 371.25467 72.55965 372.16583 74.187515 371.25467C 77.23214 369.5505 66.70462 362.41605 66.70462 362.41605z" stroke="none" fill="#F73943" fill-rule="nonzero" />
            <path d="M99.10119 345.19623C 99.10119 345.19623 94.65906 367.23657 96.29351 367.9264C 97.92796 368.6162 140.78886 371.29953 133.33588 367.5294L133.33588 367.5294L120.95836 362.06284C 116.537056 360.11017 113.66717 355.75128 113.62076 350.91818L113.62076 350.91818L113.553276 343.89127L99.10119 345.19623z" stroke="none" fill="#F9977A" fill-rule="nonzero" />
            <path d="M118.97833 191.38693L122.67965 243.3862L122.67965 347.494C 115.8486 353.69238 98.07381 356.85498 80.22011 354.69406C 63.790268 352.70554 51.197308 344.5558 42.460487 340.54407C 44.91749 321.48718 47.921036 304.8457 51.876667 283.93433C 58.188366 250.56763 67.26677 210.4248 78.33351 183.32153L78.33351 183.32153L118.97833 191.38693z" stroke="none" fill="#376F92" fill-rule="nonzero" />
            <path d="M125.90722 364.2485L112.62222 365.87537C 111.731705 364.21973 108.28771 359.38327 97.186134 355.83395C 97.01879 355.78116 96.83676 355.80386 96.68751 355.89612C 96.53826 355.9884 96.436584 356.14108 96.409 356.31436L96.409 356.31436L96.141 358.0199C 96.09552 358.31006 96.26639 358.59064 96.54509 358.6834C 101.02231 360.20523 105.16165 362.58142 108.7336 365.68024L108.7336 365.68024L95.97273 365.03992C 94.786964 367.24423 95.8739 370.66977 95.8739 370.66977C 116.5119 373.2501 136.00754 371.46503 139.00653 369.68195C 142.00552 367.89886 125.90722 364.2485 125.90722 364.2485z" stroke="none" fill="#F73943" fill-rule="nonzero" />
            <path d="M198.33565 146.66527C 198.33565 146.66527 181.41782 130.63339 165.47037 146.15285L165.47037 146.15285L198.33565 146.66527z" stroke="none" fill="#D8A935" fill-rule="nonzero" />
            <path d="M167.039 153.876L196.524 152.39L204.651 142.887L157.998 145.238L167.039 153.876L167.039 153.876" stroke="none" fill="#C6C6C6" fill-rule="nonzero" />
            <path d="M171.0971 127.33447C 171.74597 127.75782 172.21208 128.40953 172.40302 129.16039L172.40302 129.16039L182.3051 129.16039C 182.61497 129.59569 183.0938 129.87498 183.46774 130.3889C 183.19788 128.70708 184.04263 127.04296 185.55954 126.268135C 187.07645 125.4933 188.91986 125.78432 190.1243 126.98876C 191.32875 128.1932 191.61977 130.03662 190.84494 131.55353C 190.0701 133.07045 188.40599 133.91519 186.72417 133.64532L186.72417 133.64532L189.75296 133.64532L189.75296 133.64532L189.75296 135.68414L189.75296 135.68414L188.95773 132.70905C 188.68808 132.29474 188.18082 131.9588 187.84103 131.46858C 190.53458 128.74841 194.86008 128.53716 197.80588 130.98189C 200.75168 133.42664 201.34128 137.71696 199.16415 140.86572C 196.98705 144.01447 192.7649 144.97786 189.43744 143.08513C 186.10997 141.1924 184.7802 137.07095 186.37398 133.59038L186.37398 133.59038L171.0971 127.33447zM178.90633 116.91357C 179.55516 117.33661 180.02129 117.98808 180.21223 118.738754L180.21223 118.738754L190.13733 118.738754C 190.4472 119.17381 190.92603 119.4531 191.30005 119.967026C 191.0293 118.28486 191.8737 116.619896 193.39084 115.844475C 194.90799 115.069046 196.75203 115.35993 197.95682 116.56471C 199.1616 117.7695 199.45248 119.61354 198.67706 121.13069C 197.90163 122.647835 196.23668 123.492226 194.55449 123.221466L194.55449 123.221466L197.58154 123.221466L197.58154 123.221466L197.58154 125.260284L197.58154 125.260284L196.78625 122.285194C 196.51666 121.87089 196.0094 121.53494 195.66956 121.044464C 198.36417 118.32157 202.69266 118.10895 205.64114 120.55465C 208.58963 123.00034 209.18063 127.29358 207.00266 130.44499C 204.82466 133.59639 200.59972 134.56125 197.26962 132.66771C 193.93951 130.77419 192.60825 126.65 194.20276 123.166824zM188.16689 124.0166C 188.81573 124.43958 189.28186 125.09103 189.4728 125.84168L189.4728 125.84168L199.3985 125.84168C 199.70837 126.27668 200.1872 126.55603 200.56116 127.069954C 200.29019 125.38774 201.13449 123.72263 202.65166 122.94709C 204.16882 122.171555 206.01295 122.462395 207.2178 123.66723C 208.42264 124.87206 208.71349 126.716194 207.93794 128.23337C 207.16241 129.75053 205.4973 130.59483 203.8151 130.32388L203.8151 130.32388L206.84181 130.32388L206.84181 130.32388L206.84181 132.3627L206.84181 132.3627L206.04652 129.3876C 205.77687 128.9733 205.26967 128.63736 204.92982 128.14713C 207.62724 125.42045 211.96107 125.20703 214.91336 127.655495C 217.86565 130.10396 218.4575 134.4025 216.27681 137.55772C 214.0961 140.71295 209.86586 141.67873 206.53189 139.78252C 203.19792 137.8863 201.86565 133.75682 203.46283 130.2697z" stroke="none" fill="#BABABA" fill-rule="nonzero" />
            <path d="M59.03705 137.46632C 59.03705 137.46632 60.158257 133.56627 56.24347 125.51759C 52.328682 117.46892 48.38997 111.55212 49.781677 117.70612L49.781677 117.70612L50.919857 122.37812C 50.919857 122.37812 45.361057 117.80834 42.287918 114.795944C 40.640453 113.12918 38.097424 112.73439 36.022167 113.82321C 34.149548 114.858574 33.654747 116.50148 36.514038 120.647675C 40.79049 126.84889 43.226227 130.0029 44.73024 131.22502C 45.25124 131.64842 51.25718 135.77258 51.25718 135.77258L51.25718 135.77258L59.03705 137.46632z" stroke="none" fill="#F9977A" fill-rule="nonzero" />
            <path d="M54.05457 125.40552C 56.943672 123.54033 60.775402 124.162605 62.925774 126.846214C 65.07615 129.52982 64.84828 133.40504 62.398224 135.81815C 59.948162 138.23125 56.069912 138.40018 53.419308 136.20926C 53.1648 135.95265 52.91013 135.69681 52.679047 135.41556C 54.554226 131.84554 58.756287 130.181 62.567528 131.4985C 66.37877 132.816 68.65577 136.72026 67.925865 140.68619C 67.19596 144.65213 63.678135 147.48988 59.647556 147.36415C 55.616978 147.2384 52.28288 144.18689 51.801598 140.18317L51.801598 140.18317L59.374187 140.18317C 58.607044 140.07962 57.903225 140.17429 57.614445 140.41988C 57.32566 140.66547 57.513927 141.00923 58.085163 141.2794C 58.656395 141.54958 59.487938 141.68813 60.164246 141.62581C 60.840557 141.5635 61.21641 141.31372 61.10399 141.00128L61.10399 141.00128L54.05457 125.40552zM45.64036 121.32642C 44.98027 120.71851 44.360184 120.06958 43.7596 119.40186C 48.676903 109.166336 60.382725 104.11679 71.20231 107.56391C 82.02189 111.011024 88.64923 121.901505 86.73921 133.09515C 84.82919 144.2888 74.96542 152.36533 63.614952 152.02946C 52.26448 151.6936 42.89553 143.04799 41.65071 131.76099C 42.72822 133.19699 43.894913 134.51999 45.07951 135.84839C 43.28861 118.63354 44.49515 119.94019 45.64036 121.32642zM43.41227 122.76831C 49.415985 115.280174 59.592808 112.568375 68.52658 116.076126C 77.46035 119.58388 83.07339 128.4954 82.37841 138.06795C 81.68344 147.64049 74.84207 155.64781 65.49532 157.82837C 56.14858 160.00894 46.470173 155.85564 41.611 147.57887L41.611 147.57887L58.23 164.19788L58.23 164.19788L65.18789 164.19788L65.18789 164.19788L65.18789 165.67514C 65.7791 166.43832 66.39721 167.18344 67.05797 167.89462C 40.66849 119.97876 42.05158 121.34814 43.41227 122.76831zM41.01862 123.61157C 45.74625 118.99179 52.83628 117.7728 58.835396 120.54833C 64.8345 123.32386 68.495346 129.51682 68.03484 136.11082C 67.57433 142.70483 63.08823 148.32883 56.761562 150.24356C 50.434895 152.1583 43.583122 149.96564 39.543518 144.73357L39.543518 144.73357L54.198517 159.38857C 54.712517 160.0348 55.210236 160.67348 55.73813 161.28993C 56.27585 161.89784 56.80161 162.51234 57.356228 163.10393z" stroke="none" fill="#DD765E" fill-rule="nonzero" />
            <path d="M170.28564 164.63026L162.6065 154.13544L140.337 161.00394L125.47075 129.77754C 123.842476 126.35739 120.94116 123.70969 117.38675 122.40016L117.38675 122.40016L113.20404 120.85916C 113.20404 120.85916 115.05333 135.65016 104.04656 132.83452C 97.75182 131.37704 93.00691 126.19012 92.114395 119.7908C 80.65053 119.48874 70.279106 126.554955 66.365105 137.3342C 65.166176 140.66357 63.955185 144.60574 62.777714 149.272L62.777714 149.272L60.729942 132.88983L46.139584 134.42566L48.706703 169.82492C 49.5077 180.87032 63.993134 184.40993 69.7977 174.97858L69.7977 174.97858L79.15989 159.7668L80.69572 171.79745L118.3235 176.66092L121.395164 165.65414L125.009865 172.32744C 126.9623 175.93196 130.28093 178.60101 134.22029 179.73505C 138.15964 180.8691 142.38942 180.37305 145.9595 178.35832L145.9595 178.35832L170.28564 164.63026z" stroke="none" fill="#8B9D36" fill-rule="nonzero" />
            <path d="M140.25168 169.06714C 138.36427 161.12888 141.97856 152.90279 149.1021 148.92368C 156.22563 144.94455 165.12529 146.1805 170.89496 151.95016C 176.66463 157.71983 177.90057 166.61949 173.92145 173.74303C 169.94234 180.86656 161.71625 184.48085 153.778 182.59346L153.778 182.59346L161.36809 182.59346L140.25168 169.06714L161.69844 182.54097C 160.80432 170.01358 169.3095 158.75455 181.60414 156.19006C 193.89879 153.62556 206.19583 160.54556 210.38445 172.38576C 214.57306 184.22597 209.36304 197.3393 198.19077 203.07649C 187.01851 208.8137 173.32538 205.4076 166.14302 195.10474L166.14302 195.10474L169.48254 198.44426L169.48254 198.44426L172.75421 198.44426L172.75421 198.44426L173.59766 196.36345L140.25168 169.06714L161.69844 182.54097L173.68356 195.76506L173.92813 196.31094L140.25168 169.06714L161.69844 182.54097L173.68356 195.76506L173.92813 196.31094L140.25168 169.06714L161.69844 182.54097L173.68356 195.76506L173.92813 196.31094L140.25168 169.06714zM62.77768 149.272C 63.013138 150.91483 63.228916 152.55977 63.42502 154.20682L63.42502 154.20682L63.978188 159.1514L64.449524 164.10428C 64.59638 165.75638 64.72168 167.41068 64.82543 169.06717L64.82543 169.06717L64.27287 164.12259L63.802174 159.16971C 63.22316 154.22772 62.88166 150.92848 62.77768 149.272zM79.15986 159.76685C 79.99714 157.12108 80.82486 154.47217 81.70347 151.84033L81.70347 151.84033L84.30231 143.93262L84.29767 143.9497C 81.891106 131.30482 88.01188 118.56878 99.38887 112.54807C 110.76587 106.52737 124.73909 108.62967 133.84088 117.73145C 142.94266 126.83324 145.04495 140.80647 139.02425 152.18346C 133.00354 163.56046 120.2675 169.68121 107.622604 167.27464L107.622604 167.27464L123.58592 167.27464L123.58592 167.27464L123.58592 167.27464L81.70347 151.84033L84.30231 143.93262L84.29767 143.9497L124.90477 168.00165L125.56584 168.36615L126.16445 168.82515C 126.55745 169.13863 126.97313 169.4294 127.34945 169.76363L127.34945 169.76363L128.38664 170.8669C 132.60481 166.64873 138.75291 165.00134 144.51505 166.5453C 150.27716 168.08926 154.7779 172.59 156.32185 178.35211C 157.86581 184.11424 156.21843 190.26234 152.00026 194.48051L152.00026 194.48051L152.00026 195.48051L127.34945 169.76363L128.38664 170.8669L151.99873 195.48851L151.9955 195.49803L149.30434 203.37503C 81.02149 154.53809 80.08588 157.15088 79.15986 159.76685zM94.85941 181.01245C 98.46701 178.32397 103.40101 178.28401 107.0517 180.9137C 110.70238 183.54338 112.2274 188.23596 110.820145 192.5094C 109.41288 196.78285 105.39805 199.65112 100.89918 199.59714C 96.400314 199.54315 92.45546 196.57936 91.15116 192.27336L91.15116 192.27336L102.21924 203.34145L102.21924 203.34145L120.52844 203.34145C 119.779396 205.51968 119.357124 207.96228 119.4207 209.7491C 119.48428 211.53593 120.02405 212.39552 120.83667 212.0041C 121.6493 211.61267 122.611336 210.02968 123.36038 207.85144zM110.38834 187.83838C 115.92308 177.98813 127.515434 173.25041 138.36497 176.40451C 149.21451 179.55862 156.46014 189.7728 155.85136 201.05508C 155.24258 212.33739 146.93994 221.7126 135.814 223.68092C 124.68806 225.64926 113.67282 219.69167 109.23014 209.30302L109.23014 209.30302L131.13733 231.2102C 130.34607 230.38892 129.71033 229.43065 128.99295 228.552C 127.83014 216.82056 134.16591 205.62418 144.82141 200.58044C 155.47691 195.53671 168.15256 197.73412 176.48859 206.07016C 184.82463 214.40619 187.02203 227.08183 181.9783 237.73734C 176.93456 248.39284 165.73819 254.7286 154.00674 253.5658C 154.49603 253.84607 155.01724 254.06897 155.52054 254.32335C 159.9793 249.8646 166.47807 248.12326 172.56885 249.75528C 178.65962 251.3873 183.41707 256.1447 185.04907 262.2355C 186.68109 268.3263 184.93976 274.82507 180.481 279.2838L180.481 279.2838L182.17375 279.41736C 182.73958 279.42297 183.30647 279.45593 183.87291 279.43958zM120.11527 135.10815L121.49256 138.78174C 121.85465 140.03833 122.28 141.28003 122.5864 142.55322C 122.88053 143.82935 123.205666 145.10132 123.3814 146.40186C 123.47815 147.04979 123.60723 147.69386 123.6773 148.3457L123.6773 148.3457L123.86959 150.30396C 124.068825 131.61253 137.7461 115.802 156.21419 112.914505C 174.6823 110.027 192.53282 120.90814 198.4279 138.64671C 204.32298 156.38527 196.53622 175.78648 180.01343 184.52754C 163.49065 193.2686 143.07056 188.78967 131.72311 173.93558L131.72311 173.93558L150.80612 193.01859L150.80612 193.01859L150.80612 193.7261L150.80612 193.7261L143.01486 244.50777L123.6773 148.3457L123.86959 150.30396C 142.7425 243.23311 142.34674 241.98799 142.02081 240.72432z" stroke="none" fill="#5E7C24" fill-rule="nonzero" />
            <path d="M163.69016 156.12141C 163.69016 156.12141 166.39238 149.7415 174.1669 151.39041C 176.30937 152.08311 178.63223 151.95981 180.68933 151.04416C 180.68933 151.04416 187.22557 147.95322 182.3494 153.0962L182.3494 153.0962L189.4724 152.55121C 189.4724 152.55121 195.28282 149.98721 194.94208 153.2512C 194.94208 153.2512 184.05338 157.08492 182.29022 158.36151C 180.52707 159.6381 169.53984 163.58382 169.53984 163.58382L169.53984 163.58382L163.69016 156.12141z" stroke="none" fill="#F9977A" fill-rule="nonzero" />
            <path d="M121.39512 165.65414C 121.39512 165.65414 110.142 126.14991 89.5353 119.78273C 89.5353 119.78273 80.963234 118.14257 76.25884 123.39518C 76.25884 123.39518 85.51917 242.84357 122.67966 243.38611C 122.67966 243.38611 121.863 182.76782 121.39512 165.65414z" stroke="none" fill="#376F92" fill-rule="nonzero" />
            <path d="M122.67966 243.38623L121.56781 243.03687L120.50757 242.55737L119.445885 242.07373C 119.09194 241.91138 118.77759 241.68018 118.44097 241.48657C 114.21627 236.90552 111.11013 231.47852 108.2481 226.00952L108.2481 226.00952L106.3229 221.7898C 106.00621 221.08472 105.67296 220.38672 105.37011 219.67651L105.37011 219.67651L104.54342 217.5122C 103.47432 214.61548 102.23922 211.77661 101.41527 208.79785L101.41527 208.79785L100.04915 204.37646L99.36654 202.16675C 99.16039 201.42407 98.978226 200.67456 98.78716 199.92798C 98.057304 196.93115 97.29628 193.94482 96.59603 190.94653C 97.50673 193.89235 98.35671 196.85059 99.23781 199.79834L99.23781 199.79834L99.88247 202.01294L100.62606 204.19678L102.11232 208.56226C 71.722626 142.61848 92.97095 64.37557 152.54256 22.862457C 212.11417 -18.650665 292.87442 -11.493546 344.21698 39.849022C 395.5595 91.19158 402.71667 171.95184 361.20355 231.52345C 319.69043 291.09506 241.44757 312.34338 175.50378 281.9537L175.50378 281.9537L175.50378 288.8019L99.23781 199.79834L99.88247 202.01294L100.62606 204.19678L102.11232 208.56226C 175.82463 289.007 176.12506 289.2504 176.4635 289.4247L176.4635 289.4247L177.48114 289.94595L178.50232 290.4667L179.57748 290.85977L176.4635 289.4247L177.48114 289.94595L178.50232 290.4667L179.57748 290.85977L122.67966 243.38623zM114.64594 176.57568C 114.06217 174.354 113.453316 172.14331 112.748665 169.96094C 112.08501 167.76782 111.365234 165.59367 110.58933 163.43848C 109.04887 159.12769 107.36652 154.86963 105.42115 150.73218C 104.13163 148.84961 102.90177 146.91577 101.43332 145.16064C 100.10755 143.28442 98.466736 141.68506 96.96357 139.94092C 113.944084 122.960396 138.69373 116.32875 161.88954 122.54406C 185.08537 128.75937 203.20335 146.87735 209.41866 170.07318C 215.63396 193.269 209.0023 218.01863 192.02179 234.99915L192.02179 234.99915L192.02179 249.99542zM115.84861 228.084C 115.22105 227.21584 114.64238 226.31544 114.08461 225.40114C 113.49782 224.50368 112.994 223.55914 112.46388 222.62814C 111.92305 221.7026 111.42788 220.75314 110.95055 219.79465C 108.99145 215.98239 107.33186 212.02927 105.726425 208.05978C 102.58501 200.08884 100.030655 191.9072 97.643326 183.68869C 96.542496 179.55344 95.43905 175.41794 94.42268 171.26242L94.42268 171.26242L92.958275 165.01462C 92.465805 162.93307 91.97262 160.85153 91.570366 158.75046C 90.737656 154.55466 89.82591 150.37546 89.05874 146.16867L89.05874 146.16867L86.87649 133.52829C 88.63369 141.89792 90.370926 150.26462 92.28872 158.59103C 93.2286 162.75827 94.28057 166.89816 95.267715 171.05295C 96.30937 175.19382 97.44154 179.31195 98.563255 183.43039C 100.86806 191.65085 103.427536 199.80026 106.40965 207.79587C 107.925316 211.78195 109.505936 215.75095 111.36765 219.58887C 111.80835 220.56079 112.266975 221.52368 112.77124 222.46338C 113.26502 223.40845 113.73343 224.3689 114.28446 225.28223C 114.80695 226.21312 115.35077 227.13086 115.944466 228.01807zM114.318 200.457C 112.74488 197.03049 111.26917 193.5654 109.80823 190.09445C 108.34523 186.62424 106.96213 183.12228 105.535225 179.63766C 104.18022 176.12448 102.78684 172.62666 101.46787 169.09933C 100.1497 165.57175 98.845436 162.03833 97.64035 158.46579C 99.21491 161.89157 100.69025 165.3569 102.15171 168.82785C 103.61234 172.29884 104.99857 175.79953 106.42319 179.28513C 107.77585 182.79904 109.17237 186.29561 110.48899 189.82393C 111.80759 193.35156 113.11152 196.885 114.318 200.457z" stroke="none" fill="#10394F" fill-rule="nonzero" />
            <path d="M89.228 200.257L88.063 215.566L86.799 230.866L84.117 261.452L81.214 292.018L79.684 307.293L78.054 322.56L79.218 307.251L80.481 291.951L83.165 261.365L86.07 230.799L87.6 215.524L89.228 200.257L89.228 200.257" stroke="none" fill="#10394F" fill-rule="nonzero" />
            <path d="M93.03205 211.15112C 93.22931 214.98657 93.321754 218.82227 93.39829 222.65796C 93.477036 226.49365 93.469795 230.32935 93.50977 234.16504C 93.472336 238.00049 93.47617 241.83618 93.39997 245.67188C 93.32288 249.50757 93.23084 253.34326 93.03205 257.1787C 92.83326 253.34326 92.74125 249.50757 92.66416 245.67188C 92.58796 241.83618 92.591774 238.00049 92.55433 234.16504C 92.59433 230.32935 92.58707 226.49365 92.66584 222.65796C 92.74235 218.82227 92.83478 214.98657 93.03205 211.15112z" stroke="none" fill="#10394F" fill-rule="nonzero" />
            <path d="M97.64 223.107L99.193 236.129L100.648 249.161L103.402 275.241L105.936 301.344L107.124 314.403L108.213 327.472L106.658 314.45L105.203 301.418L102.451 275.338L99.919 249.235L98.73 236.176L97.64 223.107L97.64 223.107" stroke="none" fill="#10394F" fill-rule="nonzero" />
            <path d="M259.969 273.168L270.723 180.764L344.15 182.163L333.525 270.111L259.969 273.168L259.969 273.168" stroke="none" fill="#C38F86" fill-rule="nonzero" />
            <path transform="matrix(-1 8.742278E-08 -8.742278E-08 -1 774.444 566.9359)"  d="M348.23 279.329L426.213 279.329L426.213 287.607L348.23 287.607z" stroke="none" fill="#C38F86" fill-rule="nonzero" />
            <path d="M349.97314 279.32916L349.97314 318.103L421.0604 318.103C 422.51254 282.92633 429.4004 254.89247 436.1024 235.37735C 446.8178 204.17065 459.19363 187.51312 459.7148 186.81941L459.7148 186.81941L469.3938 194.08278C 468.92108 194.71623 422.2351 258.70853 435.1286 370.12186L435.1286 370.12186L423.1073 371.51404C 421.46182 357.40182 420.68826 343.20197 420.79095 328.9945L420.79095 328.9945L349.97314 328.9945L349.97314 370.81793L338.64584 370.81793L338.64584 279.32916L349.97314 279.32916z" stroke="none" fill="#C38F86" fill-rule="nonzero" />
            <path d="M338.6458 279.3292L426.21347 279.3292L426.21347 277.0887C 426.21347 271.5204 421.69946 267.00638 416.1311 267.00635L416.1311 267.00635L348.72818 267.00635C 343.15985 267.00638 338.64584 271.5204 338.6458 277.0887L338.6458 277.0887L338.6458 279.3292z" stroke="none" fill="#F65B2B" fill-rule="nonzero" />
            <path d="M316.347 270.111L324.383 270.111L324.383 371.44598L316.347 371.44598z" stroke="none" fill="#C38F86" fill-rule="nonzero" />
            <path d="M255.127 270.111L263.163 270.111L263.163 371.44598L255.127 371.44598z" stroke="none" fill="#C38F86" fill-rule="nonzero" />
            <path d="M244.72 272.12003C 244.72 268.4197 247.7197 265.42 251.42 265.42L251.42 265.42L326.824 265.42C 330.52432 265.42 333.524 268.4197 333.524 272.12003L333.524 272.12003L333.524 272.121C 333.524 275.82132 330.52432 278.821 326.824 278.821L326.824 278.821L251.42 278.821C 247.7197 278.821 244.72 275.82132 244.72 272.121L244.72 272.121L244.72 272.12003z" stroke="none" fill="#F65B2B" fill-rule="nonzero" />
            <path d="M221.99506 201.64317C 221.99506 201.64317 220.45615 197.65884 212.0554 193.39607C 203.65466 189.1333 196.58914 186.67407 201.66891 190.9515L201.66891 190.9515L205.59386 194.14699C 205.59386 194.14699 198.02571 193.84761 193.53273 193.27441C 191.09116 192.92363 188.70697 194.20917 187.65836 196.44183C 186.74574 198.50084 187.37515 200.19353 192.40953 201.85379C 199.93916 204.33691 203.98753 205.43413 206.02608 205.50314C 206.73232 205.52705 214.39221 205.1684 214.39221 205.1684L214.39221 205.1684L221.99506 201.64317z" stroke="none" fill="#F9977A" fill-rule="nonzero" />
            <path d="M210.148 194.6936C 209.76134 194.74054 209.37146 194.75548 208.98235 194.73828C 208.60072 194.72835 208.21986 194.69917 207.84117 194.65088C 207.46452 194.59741 207.08824 194.54468 206.71562 194.45581C 206.33514 194.37836 205.96036 194.27518 205.59386 194.14697C 205.97585 194.05714 206.36708 194.01251 206.7595 194.01398C 207.14523 194.00748 207.53093 194.0291 207.91351 194.07867C 208.29555 194.12682 208.67383 194.20105 209.04572 194.30084C 209.42542 194.39438 209.79472 194.52596 210.148 194.6936z" stroke="none" fill="#DD765E" fill-rule="nonzero" />
            <path d="M250.66342 347.25116L251.2623 366.1598C 251.2623 366.1598 240.66316 368.7583 235.6674 356.4668L235.6674 356.4668L236.54341 345.4252L250.66342 347.25116z" stroke="none" fill="#F9977A" fill-rule="nonzero" />
            <path d="M251.06537 353.69238C 251.06537 353.69238 259.49408 364.2207 254.82237 370.42612C 254.32556 371.07666 253.55107 371.45486 252.73256 371.44662L252.73256 371.44662L210.94556 371.21976C 210.55832 371.21655 210.19075 371.04868 209.93474 370.75812C 209.67873 370.46756 209.55847 370.0818 209.60403 369.6972C 209.84386 367.53244 210.8544 363.61752 214.94212 361.81976C 220.7542 359.26364 224.87756 363.86957 234.56937 355.53418C 234.5693 355.53418 247.132 359.14444 251.06537 353.69238z" stroke="none" fill="#935B50" fill-rule="nonzero" />
            <path d="M301.14276 347.25116L301.74164 366.1598C 301.74164 366.1598 291.14252 368.7583 286.14676 356.4668L286.14676 356.4668L287.02277 345.4252L301.14276 347.25116z" stroke="none" fill="#F9977A" fill-rule="nonzero" />
            <path d="M301.5447 353.69238C 301.5447 353.69238 309.97342 364.2207 305.3017 370.42612C 304.80487 371.07666 304.0304 371.45486 303.21188 371.44662L303.21188 371.44662L261.42484 371.21976C 261.0376 371.21655 260.67004 371.0487 260.41403 370.75815C 260.15802 370.4676 260.03778 370.0818 260.0833 369.6972C 260.32312 367.53244 261.33368 363.61752 265.42142 361.81976C 271.2335 359.26364 275.35687 363.86957 285.04865 355.53418C 285.04865 355.53418 297.61136 359.14444 301.5447 353.69238z" stroke="none" fill="#935B50" fill-rule="nonzero" />
            <path d="M274.0935 159.21188L263.06708 164.625C 260.64746 165.81096 258.61194 167.65608 257.19482 169.948C 254.52429 174.26807 247.32858 191.6167 245.2121 196.76807C 244.86176 197.62013 243.9761 198.12407 243.06462 197.98999L243.06462 197.98999L213.549 193.11984C 215.03152 197.55344 213.99074 202.44235 210.83092 205.88766L210.83092 205.88766L249.9022 217.45407C 253.40256 218.20332 256.97418 216.5334 258.6437 213.36693L258.6437 213.36693L264.8019 201.68773C 264.8019 201.68773 269.31497 210.44821 275.4208 221.59813L275.4208 221.59813L274.09348 237.5266L338.07248 237.5266L334.35587 195.84715C 334.35587 195.84715 334.6213 168.76903 322.14413 161.33568C 322.14413 161.33568 314.71085 156.55736 300.37534 156.82274C 299.56763 154.83011 298.3461 153.03166 296.79147 151.54637L296.79147 151.54637L274.0935 159.21188z" stroke="none" fill="#F73C4F" fill-rule="nonzero" />
            <path d="M338.2064 237.45341C 338.2064 237.45341 346.6869 269.36234 304.2844 270.34415L304.2844 270.34415L306.4045 351.67032L281.387 351.67032L278.41882 267.88962L257.70612 269.00494L255.94548 351.6703L232.433 351.6703L233.89616 261.5078C 233.89616 248.22293 243.19844 237.4534 254.6734 237.4534L254.6734 237.4534L338.2064 237.45341z" stroke="none" fill="#FFBA55" fill-rule="nonzero" />
            <path d="M307.39386 257.74414C 306.96234 247.63309 313.74902 238.63132 323.58847 236.26381C 333.4279 233.8963 343.5666 238.82559 347.78174 248.02623C 351.99692 257.22687 349.10898 268.12415 340.89044 274.0297C 332.6719 279.9352 321.4227 279.19638 314.04718 272.26666L314.04718 272.26666L320.90854 279.12802L320.90854 279.12802L331.2968 279.12802L331.2968 279.12802L332.05994 275.97543C 306.8371 262.116 307.077 259.9441 307.39386 257.74414zM290.1502 237.45337C 293.20154 237.09067 295.96918 239.27023 296.3319 242.32158C 296.6946 245.37292 294.515 248.14056 291.46368 248.50327L291.46368 248.50327L322.7255 279.76508L290.1502 237.45337L322.24057 281.90546L321.8878 284.0761L321.53787 286.24823C 321.4636 286.9787 321.3759 287.70746 321.28238 288.43646C 320.86783 291.34833 320.71616 294.28802 320.37778 297.22284C 320.38925 294.2751 320.38986 291.31708 320.68015 288.37372C 320.7327 287.6364 320.79086 286.8991 320.86258 286.1635L320.86258 286.1635L321.17978 283.96625L321.5009 281.7685L321.95883 279.59048C 314.7271 266.6645 318.1372 250.38501 329.94858 241.44797C 341.75995 232.51094 358.35336 233.65485 368.82666 244.12813C 379.29993 254.60141 380.44385 271.19482 371.5068 283.0062C 362.56976 294.81757 346.29028 298.22766 333.3643 290.99594L320.86258 286.1635L321.17978 283.96625L321.5009 281.7685L321.95883 279.59048L320.86258 286.1635L321.17978 283.96625L321.5009 281.7685L321.95883 279.59048L333.3643 290.99594zM257.70612 269.00488L256.7765 266.98288C 256.4599 266.3249 256.1524 265.66888 255.78442 265.05368C 255.16678 266.76685 254.04468 268.25275 252.56592 269.31558L252.56592 269.31558L259.6759 269.31558z" stroke="none" fill="#E6952A" fill-rule="nonzero" />
            <path d="M278.64658 222.74722L264.876 220.27728C 263.37686 219.94655 261.8081 220.29137 260.58585 221.22028L260.58585 221.22028L251.46185 228.15454C 253.46185 232.89522 278.3412 232.83818 278.3412 232.83818C 278.3412 232.83818 281.3961 222.90327 278.64658 222.74722z" stroke="none" fill="#F9977A" fill-rule="nonzero" />
            <path d="M254.90771 230.40991C 256.2724 229.3274 257.6659 228.28247 259.10236 227.29419L259.10236 227.29419L259.1828 227.23877L259.25256 227.23389C 260.42413 227.15405 261.60135 227.12485 262.78418 227.14624L262.78418 227.14624L262.93408 227.08643C 261.59894 228.20776 260.22076 229.2727 258.8139 230.30005L258.8139 230.30005L254.90771 230.40991zM260.0846 231.60571C 260.99347 230.81665 261.92474 230.05518 262.90094 229.34888L262.90094 229.34888L262.97742 229.29346L263.03412 229.28346C 263.0154 219.26701 269.03726 210.22731 278.2877 206.38554C 287.53812 202.54378 298.1922 204.65784 305.2749 211.74055C 312.3576 218.82327 314.47168 229.47736 310.6299 238.72778C 306.78815 247.97821 297.74844 254.00006 287.73203 253.98137L262.90094 229.34888L262.97742 229.29346L263.03412 229.28346L287.86484 253.91618C 286.97464 254.72818 286.03952 255.48502 285.08206 256.21426zM266.26453 232.36084L266.35938 232.26147L266.46558 232.24512C 266.47668 227.53966 270.29633 223.73204 275.0018 223.73575C 279.7073 223.73946 283.5209 227.55309 283.52463 232.25858C 283.52832 236.96405 279.72073 240.78368 275.01526 240.7948L266.26453 232.36084L266.35938 232.26147L266.46558 232.24512L275.216 240.67932L266.26453 232.36084L266.35938 232.26147L266.46558 232.24512L275.216 240.67932z" stroke="none" fill="#DD765E" fill-rule="nonzero" />
            <path d="M257.70746 187.47925C 258.44046 188.63379 259.10724 189.82124 259.76392 191.01392C 260.42206 192.20581 261.0259 193.42479 261.6595 194.62892C 262.2442 195.85744 262.85498 197.07301 263.41522 198.31374C 263.9749 199.55495 264.52515 200.8008 265.008 202.08034C 264.27405 200.92628 263.60748 199.73854 262.95044 198.54616C 262.29395 197.35353 261.688 196.13551 261.05597 194.93068C 260.47284 193.70119 259.85986 192.48685 259.30127 191.24513C 258.7412 190.00415 258.19122 188.7583 257.70746 187.47925zM245.363 204.33667C 243.40857 196.95834 246.64735 189.1864 253.263 185.37947C 259.87863 181.57253 268.2256 182.67749 273.6228 188.07469C 279.02 193.4719 280.12497 201.81885 276.31802 208.4345C 272.51108 215.05013 264.73914 218.28891 257.3608 216.33447L257.3608 216.33447L257.3608 228.13281C 257.13367 225.57559 256.31378 224.822 255.23666 226.18042C 254.38367 225.73584 253.49504 225.354 252.60184 224.97534C 247.18475 205.06494 246.2837 204.69019 245.363 204.33667zM309.74017 180.5769C 311.20212 160.47165 328.1889 145.05418 348.34134 145.54189C 368.49377 146.02959 384.71487 162.2507 385.20258 182.40314C 385.69028 202.55557 370.2728 219.54234 350.16754 221.00429L350.16754 221.00429L350.16754 234.55885L350.16754 234.55885L347.3648 247.29779L347.3648 247.29779L373.6878 273.6208L373.6878 273.6208L424.35724 273.6208C 311.3175 177.22559 310.51086 178.88867 309.74017 180.5769zM308.14734 185.35547C 290.5643 145.8419 303.66754 99.40824 339.3127 74.91529C 374.95792 50.422333 423.00235 54.839455 453.58408 85.42119C 484.1658 116.002914 488.58292 164.04736 464.08997 199.69254C 439.597 235.3377 393.16333 248.44095 353.6498 230.85794L353.6498 230.85794L353.6498 233.07639L308.14734 185.35547L353.6791 233.12253L353.67923 233.17673L353.699 239.81345L353.69962 239.99945L353.5132 240.01825L319.41 243.43817L319.52914 242.86249C 321.81195 240.57968 325.1392 239.68816 328.25757 240.52371C 331.37595 241.35928 333.81165 243.795 334.64722 246.91336C 335.4828 250.03172 334.59125 253.35898 332.30844 255.64178L308.14734 185.35547L353.6791 233.12253L353.67923 233.17673L353.699 239.81345L353.69962 239.99945L353.5132 240.01825L319.41 243.43817L319.52914 242.86249C 332.22467 256.31342 332.12125 256.9843 331.9883 257.64594C 331.81827 258.29803 331.69553 258.9655 331.48386 259.6042C 331.10757 260.89838 330.62332 262.15033 330.1331 263.3996L330.1331 263.3996L329.83737 262.9577L364.73032 263.0622L373.45352 263.08832L377.81516 263.1015C 374.9515 256.36777 377.2632 248.54906 383.32822 244.4552C 389.3932 240.36134 397.50906 241.14143 402.68323 246.31558C 407.85736 251.48973 408.63748 259.60562 404.5436 265.67062C 400.44977 271.7356 392.63104 274.0473 385.8973 271.18365L385.8973 271.18365L385.8973 273.23236L330.1331 263.3996L329.83737 262.9577L364.73032 263.0622L373.45352 263.08832L377.81516 263.1015L330.1331 263.3996L329.83737 262.9577L364.73032 263.0622L373.45352 263.08832L377.81516 263.1015C 374.84192 257.79913 377.45532 236.4692 391.90964 224.16147C 406.36392 211.85376 427.8377 212.67363 441.3115 226.04762C 454.78525 239.42163 455.76468 260.88873 443.56473 275.4341C 431.36478 289.97946 410.05487 292.75134 394.5399 281.81094L394.5399 281.81094L402.88757 290.15863L402.88757 290.15863L417.5515 290.15863L330.1331 263.3996L329.83737 262.9577L364.73032 263.0622L373.45352 263.08832L377.81516 263.1015L413.18988 290.17157L404.46667 290.19794L369.57373 290.30243L369.107 290.3039L369.2779 289.8603C 369.753 288.62665 370.22235 287.39178 370.58258 286.12372C 365.42087 275.06873 368.94324 261.90347 378.93567 254.903C 388.9281 247.90253 402.50473 249.08864 411.13187 257.7158C 419.75903 266.34293 420.94513 279.91956 413.94464 289.912C 406.94418 299.90442 393.77893 303.4268 382.72397 298.2651L382.72397 298.2651L387.8643 298.2651L387.8643 298.2651L387.1415 297.76877L387.98343 297.68942L422.10635 294.47263L421.92075 294.67722L421.94052 288.0405L421.96988 288.14084C 430.14664 289.2006 437.1369 294.5421 440.30753 302.1533C 443.47812 309.76447 442.34738 318.48895 437.34122 325.04037C 432.33505 331.59177 424.21402 334.97476 416.03726 333.915L387.8643 298.2651L387.1415 297.76877L387.98343 297.68942L422.10635 294.47263L421.92075 294.67722L421.94052 288.0405L421.96988 288.14084L387.8643 298.2651L387.1415 297.76877L387.98343 297.68942L422.10635 294.47263L421.92075 294.67722L421.94052 288.0405L421.96988 288.14084L416.03726 333.915z" stroke="none" fill="#B02336" fill-rule="nonzero" />
            <path d="M295.4046 233.14062C 296.56583 239.12737 295.13312 245.32573 291.46246 250.19562L291.46246 250.19562L307.8015 266.53467C 307.50275 265.95996 307.22778 265.37085 306.87543 264.8235C 307.20633 269.1718 306.10696 273.50916 303.7448 277.17493L303.7448 277.17493L316.5633 277.17493C 313.38113 275.05966 307.81036 273.24005 303.01544 272.74973C 298.22055 272.2594 295.41412 273.22238 296.19037 275.09164C 296.96664 276.9609 301.12924 279.2637 306.31363 280.69193C 311.49805 282.12018 316.3931 282.31265 318.2182 281.16003L318.2182 281.16003L295.4046 233.14062zM326.19946 227.16748C 329.13116 236.75966 327.92227 247.14047 322.86475 255.80226L322.86475 255.80226L352.61798 285.5555L352.61798 285.5555L375.2633 285.5555L326.19946 227.16748L374.3307 285.30356L375.19598 284.93027C 373.404 275.73117 377.83176 266.44095 386.10587 262.0394C 394.37997 257.63782 404.5585 259.158 411.18552 265.78497C 417.81253 272.412 419.3327 282.5905 414.93112 290.86462C 410.52957 299.13873 401.23935 303.56653 392.04025 301.77454L392.04025 301.77454L392.04025 315.88553C 394.48297 303.2791 397.02188 295.3866 397.711 298.2571C 398.40015 301.1276 396.97858 313.6741 394.53586 326.28052L394.53586 326.28052L406.9063 338.65097L406.9063 338.65097L426.41232 338.65097L426.41232 338.65097L426.41232 338.65097L326.19946 227.16748L374.3307 285.30356L375.19598 284.93027L426.345 338.02573C 429.362 328.61816 438.55896 322.61218 448.38568 323.63235C 458.2124 324.65253 465.9795 332.41962 466.99966 342.24634C 468.01984 352.07306 462.01385 361.27002 452.60626 364.287L452.60626 364.287L452.60626 380.58667L326.19946 227.16748L374.3307 285.30356L375.19598 284.93027L426.345 338.02573L452.60626 380.58667zM252.7962 190.665C 252.65588 178.38925 259.9613 167.2504 271.2763 162.48763C 282.5913 157.72485 295.66348 160.28625 304.3443 168.96707C 313.02515 177.64789 315.58655 190.7201 310.8238 202.0351C 306.061 213.3501 294.92215 220.6555 282.64642 220.5152L282.64642 220.5152L282.64642 221.5152L252.7962 190.665L282.64642 221.5152zM274.2995 159.60449C 279.42712 158.82246 284.21786 162.34525 284.99988 167.47287C 285.78192 172.6005 282.25912 177.3912 277.1315 178.17325C 277.10922 179.22842 277.11392 180.28555 277.18106 181.34195C 277.23355 182.39932 277.35928 183.45206 277.43805 184.50943L277.43805 184.50943L276.87726 184.32143C 275.90863 180.68753 277.50012 176.85593 280.75827 174.97768C 284.01642 173.09941 288.1297 173.6423 290.78897 176.30156C 293.44824 178.96083 293.99115 183.07414 292.11288 186.33229C 290.23462 189.59044 286.403 191.18193 282.76913 190.2133L282.76913 190.2133L282.76913 202.80699L277.43805 184.50943L276.87726 184.32143C 283.10794 203.08849 283.40244 203.42076 283.71164 203.72618C 283.3577 203.4657 283.02658 203.18272 282.6713 202.93834C 283.14978 204.67867 282.9322 206.53688 282.0646 208.11957L282.0646 208.11957L288.38654 214.4415L288.38654 214.4415L296.133 214.4415L296.133 214.4415L295.64966 214.92905L295.57202 214.25327C 306.19354 198.54926 326.79156 193.12021 343.7737 201.5487C 360.75586 209.97722 368.88782 229.66537 362.80344 247.62125C 356.71906 265.57712 338.29364 276.26624 319.68594 272.635C 301.07822 269.00378 288.02353 252.17146 289.13647 233.24544L289.13647 233.24544L297.53622 233.24544L296.133 214.4415L295.64966 214.92905L295.57202 214.25327L296.133 214.4415L295.64966 214.92905L295.57202 214.25327L297.53622 233.24544zM300.58136 157.21533C 306.542 146.71317 318.5304 141.17477 330.39105 143.44388C 342.25174 145.713 351.34924 155.2854 353.01242 167.2461C 354.6756 179.2068 348.53488 190.89813 337.74326 196.31711C 326.95163 201.73608 313.907 199.67862 305.3072 191.20113L305.3072 191.20113L336.57318 222.46713L336.57318 222.46713L362.8316 222.46713L300.58136 157.21533L362.5954 222.80038L362.33368 222.46347C 363.8706 225.91034 363.1204 229.94818 360.44794 232.61295L360.44794 232.61295L371.98358 244.1486L371.98358 244.1486L386.8265 244.1486L386.8265 244.1486L386.8265 257.05017L386.8265 257.05017L387.28085 267.62033L387.28085 267.62033L396.89258 267.62033L300.58136 157.21533L362.5954 222.80038L362.33368 222.46347L396.3949 267.61642L300.58136 157.21533L362.5954 222.80038L362.33368 222.46347L396.3949 267.61642L300.58136 157.21533L362.5954 222.80038L362.33368 222.46347L396.3949 267.61642zM282.79468 171.949L284.14795 195.59915C 284.3546 199.54008 284.61066 203.47726 284.91608 207.41068C 285.0558 209.37796 285.22687 211.34355 285.45056 213.3013C 285.55133 214.28201 285.64667 215.26419 285.81055 216.23538C 285.89343 216.72049 285.93536 217.2161 286.05206 217.69363L286.05206 217.69363L286.39752 219.13284L286.05206 217.69363L286.39752 219.13284C 285.98468 215.20023 285.73303 211.25613 285.47333 207.31374C 285.26697 203.36818 285.07812 199.4224 284.9629 195.47389L284.9629 195.47389L284.82388 189.55031z" stroke="none" fill="#B02336" fill-rule="nonzero" />
            <path d="M291.6615 114.54831C 288.6259 113.87757 285.47437 113.9379 282.46667 114.72431C 281.05502 115.12164 275.89206 116.57477 273.11612 121.18704C 272.0618 122.938675 271.70578 125.106476 270.99326 129.44205C 270.54825 132.15012 269.36874 134.03246 269.14938 137.35689C 269.025 140.05399 269.28928 142.75493 269.93417 145.37672C 270.88947 149.47665 269.9506 151.7075 270.51025 152.4992C 272.76572 155.69 280.3817 153.81021 280.23114 157.76831C 280.13815 160.21231 271.78436 167.68031 274.56488 168.3721C 280.99118 169.97089 288.53598 168.38162 292.18332 166.76617C 292.6805 166.54596 298.3394 165.2789 298.1502 160.9328C 298.0491 158.61104 297.39453 143.88058 297.67517 142.4977C 298.68985 137.49939 301.27216 137.05325 303.681 131.08986C 304.9934 128.05075 304.62985 124.5477 302.72137 121.84286C 300.0042 118.18965 296.08945 115.607666 291.6615 114.54831z" stroke="none" fill="#F9977A" fill-rule="nonzero" />
            <path transform="matrix(0.06632613 -0.997798 0.997798 0.06632613 120.237946 396.07578)"  d="M270.482 133.789C 270.482 133.22235 271.05328 132.763 271.758 132.763C 272.4627 132.763 273.034 133.22235 273.034 133.789C 273.034 134.35565 272.4627 134.815 271.758 134.815C 271.05328 134.815 270.482 134.35565 270.482 133.789" stroke="none" fill="#0A0709" fill-rule="nonzero" />
            <path transform="matrix(0.06632613 -0.997798 0.997798 0.06632613 128.24689 405.86078)"  d="M279.715 134.403C 279.715 133.83635 280.2863 133.377 280.991 133.377C 281.6957 133.377 282.267 133.83635 282.267 134.403C 282.267 134.96965 281.6957 135.429 280.991 135.429C 280.2863 135.429 279.715 134.96965 279.715 134.403" stroke="none" fill="#0A0709" fill-rule="nonzero" />
            <path d="M276.8228 131.83447C 277.8017 131.8575 278.69394 132.401 279.16345 133.26025C 279.63293 134.1195 279.60837 135.16396 279.099 136.00018C 278.5896 136.83641 277.6728 137.33737 276.6939 137.31435L276.6939 137.31435L277.34192 137.96234L277.34192 137.96234L284.2239 137.96234C 287.13864 138.2088 295.0892 138.42747 303.3166 138.48747C 311.544 138.54745 317.82056 138.43253 318.3893 138.21147C 318.95807 137.99042 313.665 137.72308 305.6784 137.56949C 297.69183 137.41591 289.1742 137.41765 285.2239 137.57367L276.8228 131.83447L285.2239 137.57367L276.8228 131.83447zM286.39215 132.47021C 287.3703 132.49324 288.26187 133.03636 288.73102 133.89499C 289.20016 134.7536 289.17557 135.79729 288.66656 136.63289C 288.15753 137.46848 287.2414 137.96904 286.26324 137.94601L286.26324 137.94601L286.91125 138.59401L286.91125 138.59401L293.78726 138.59401C 296.70935 138.83997 304.66086 139.05815 312.88498 139.11804C 321.1091 139.17795 327.38083 139.06335 327.9482 138.84282C 328.51562 138.62228 323.2252 138.35548 315.24182 138.20201C 307.25842 138.04854 298.742 138.04993 294.78726 138.20534L286.39215 132.47021L294.78726 138.20534z" stroke="none" fill="#1E1D22" fill-rule="nonzero" />
            <path d="M277.6422 132.15454C 279.74185 131.5828 281.98703 132.17462 283.53198 133.70709C 285.07697 135.23956 285.687 137.47984 285.13232 139.58406C 284.57767 141.68828 282.94254 143.33673 280.8429 143.90848C 280.47864 144.32693 279.9679 144.62381 279.9726 145.05911C 280.68475 144.34695 281.72275 144.06882 282.69556 144.3295C 283.6684 144.59016 284.42825 145.35002 284.68893 146.32286C 284.9496 147.29568 284.67148 148.33368 283.95932 149.04584L283.95932 149.04584L283.95932 150.04584L283.95932 150.04584L284.95932 149.2746L284.95932 149.2746L285.51724 148.69281L284.95932 149.2746L285.51724 148.69281L284.95932 149.2746L285.51724 148.69281L277.6422 132.15454zM294.3935 133.70093C 295.2416 132.85283 296.47775 132.52159 297.6363 132.83202C 298.79483 133.14246 299.69977 134.04738 300.0102 135.20592C 300.32062 136.36446 299.9894 137.60062 299.1413 138.44872L294.3935 133.70093L299.35474 138.98387C 299.39764 139.17308 299.4533 139.35521 299.48218 139.5454C 299.15182 141.20998 298.549 142.80862 297.698 144.27687z" stroke="none" fill="#DD765E" fill-rule="nonzero" />
            <path d="M294.8725 139.06665C 294.51743 138.29666 294.43396 137.42903 294.63568 136.60547C 294.7369 136.19423 294.90054 135.80092 295.12085 135.43921C 295.3393 135.08194 295.6209 134.76741 295.95197 134.51099C 295.76343 134.8833 295.5583 135.22339 295.4156 135.59253C 295.25507 135.94841 295.1344 136.32097 295.05573 136.70337C 294.87564 137.47736 294.81387 138.27415 294.8725 139.06665z" stroke="none" fill="#DD765E" fill-rule="nonzero" />
            <path d="M291.69824 140.7171C 291.706 139.26599 292.0296 137.83398 292.64655 136.52057C 293.5012 134.7058 294.56656 132.2265 296.40042 132.17867C 297.75162 132.1434 298.3147 131.82466 298.7121 133.15294C 299.36865 135.35019 297.8231 137.62321 296.7471 139.20645C 295.2065 141.47179 293.99722 141.90833 293.86746 143.53786C 293.7683 144.78093 297.15234 147.54192 297.85785 147.10077C 299.296 146.20149 298.74194 143.1832 302.95584 136.36795C 305.61703 132.06444 306.75992 131.29996 307.21878 128.5335C 307.38165 127.55122 308.05597 123.48465 305.75067 120.940254C 304.68134 119.76006 304.0092 120.05331 299.1804 117.61906C 297.8372 116.9801 296.52963 116.268616 295.26364 115.487785C 291.44965 113.062836 291.61163 111.95664 289.33945 111.14438C 287.2868 110.4107 287.10345 111.29571 283.12418 110.793625C 279.28766 110.30962 279.00302 109.42941 277.1887 109.81886C 274.0386 110.494865 272.33435 113.69814 271.87668 114.55886C 270.97867 116.04181 270.45578 117.721344 270.3533 119.45197C 270.40652 121.2182 270.9452 122.93563 271.91022 124.41587C 272.3784 124.96079 274.61087 122.14752 275.7943 121.112C 276.95468 120.09755 278.16125 120.6247 279.83875 120.8414C 281.47433 121.05268 281.3165 122.06961 283.6861 123.12915C 284.53036 123.50661 288.10208 122.18333 289.09393 124.17726C 290.1508 126.30177 291.06174 126.61126 290.37524 128.4771C 289.94632 129.64279 290.06577 131.11792 290.30457 134.06833C 290.47574 136.18565 288.29257 143.39633 288.29257 143.39633C 287.57944 144.63837 291.67694 143.95433 291.69824 140.7171z" stroke="none" fill="#1E1D22" fill-rule="nonzero" />
            <path d="M279.90228 146.04175C 279.44687 146.64102 278.8539 147.12186 278.17346 147.4436C 277.47675 147.79083 276.70752 147.96756 275.92914 147.95923C 275.5327 147.94275 275.13947 147.88116 274.75702 147.77563C 274.38412 147.6484 274.03046 147.47066 273.70587 147.24731C 273.07474 146.82156 272.5749 146.22821 272.2625 145.53395C 272.8403 145.92331 273.45206 146.25972 274.09033 146.53908C 274.6785 146.79361 275.31232 146.92577 275.9532 146.9275C 277.3139 146.88599 278.6542 146.58537 279.90228 146.04175z" stroke="none" fill="#DD765E" fill-rule="nonzero" />
            <path d="M276.40482 141.42442C 274.23026 141.20421 273.89447 140.08803 269.8055 144.8011C 269.8055 144.8011 274.1201 143.76176 282.37006 146.34482C 282.3701 146.34483 279.5183 141.73973 276.40482 141.42442z" stroke="none" fill="#1E1D22" fill-rule="nonzero" />
            <path d="M300.47934 157.21535C 300.47934 157.21535 300.21387 167.03784 294.37347 174.86935C 294.37347 174.86935 309.13754 162.61728 308.47794 160.7993L308.47794 160.7993L300.47934 157.21535zM281.89624 171.94908C 277.11774 167.17058 272.60468 171.94908 272.60468 171.94908C 271.41003 161.0647 274.1975 159.6046 274.1975 159.6046L274.1975 159.6046L280.1912 157.21533z" stroke="none" fill="#F73C4F" fill-rule="nonzero" />
            <path d="M274.1975 159.60449C 279.32346 158.82246 284.1128 162.34387 284.89484 167.46979C 285.67685 172.5957 282.15546 177.38504 277.0295 178.16708C 277.00717 179.22226 277.01193 180.27939 277.07907 181.33578C 277.13156 182.39316 277.2573 183.44589 277.33606 184.50327L277.33606 184.50327L276.7752 184.31526C 275.80634 180.6812 277.39777 176.8493 280.65604 174.97084C 283.91434 173.09238 288.0279 173.63524 290.68732 176.29465C 293.34674 178.95407 293.88962 183.06763 292.01114 186.32593C 290.1327 189.58421 286.3008 191.17564 282.66675 190.20679L282.66675 190.20679L282.66675 202.80042L277.33606 184.50327L276.7752 184.31526C 283.00555 203.08191 283.3 203.41418 283.60925 203.7196C 283.2553 203.45912 282.9242 203.17615 282.5689 202.93176C 283.04703 204.67203 282.82944 206.53003 281.96222 208.11276L281.96222 208.11276L288.28384 214.43439L288.28384 214.43439L296.0303 214.43439L296.0303 214.43439L295.5469 214.92194L295.46933 214.24615C 306.09024 198.5424 326.68732 193.11276 343.66946 201.54004C 360.6516 209.9673 368.78482 229.65416 362.70236 247.61008C 356.61987 265.566 338.19638 276.25693 319.5887 272.62836C 300.98105 268.9998 287.9242 252.17007 289.03378 233.24442L289.03378 233.24442L297.43353 233.24442L296.0303 214.43439L295.5469 214.92194L295.46933 214.24615L296.0303 214.43439L295.5469 214.92194L295.46933 214.24615L297.43353 233.24442L274.1975 159.60449zM300.4793 157.21533C 306.438 146.71567 318.42307 141.17827 330.28076 143.44635C 342.13843 145.71443 351.23392 155.28401 352.8971 167.24155C 354.56027 179.19908 348.42157 190.8876 337.63293 196.30556C 326.84433 201.72351 313.803 199.66704 305.20514 191.19205L305.20514 191.19205L336.47113 222.45805L336.47113 222.45805L362.73413 222.45805L300.4793 157.21533L362.49786 222.7913L362.2362 222.45439C 363.77338 225.90166 363.02316 229.93999 360.35046 232.6052L360.35046 232.6052L371.88556 244.14029L371.88556 244.14029L386.72842 244.14029L386.72842 244.14029L386.72842 257.04184L386.72842 257.04184L387.18277 267.61145L387.18277 267.61145L396.79422 267.61145L300.4793 157.21533L362.49786 222.7913L362.2362 222.45439L396.29654 267.60754L300.4793 157.21533L362.49786 222.7913L362.2362 222.45439L396.29654 267.60754L300.4793 157.21533L362.49786 222.7913L362.2362 222.45439L396.29654 267.60754z" stroke="none" fill="#B02336" fill-rule="nonzero" />
            <path transform="matrix(-1 8.742278E-08 -8.742278E-08 -1 344.858 610.26996)"  d="M168.244 238.756L176.613 238.756L176.613 371.51398L168.244 371.51398z" stroke="none" fill="#935B50" fill-rule="nonzero" />
            <path transform="matrix(-1 8.742278E-08 -8.742278E-08 -1 555.952 471.09396)"  d="M152.221 233.78C 152.221 232.98306 152.86705 232.337 153.66399 232.337L153.66399 232.337L402.289 232.337C 403.08594 232.337 403.732 232.98306 403.732 233.78L403.732 233.78L403.732 237.313C 403.732 238.10995 403.08594 238.75601 402.289 238.75601L402.289 238.75601L153.66399 238.75601C 152.86705 238.75601 152.221 238.10995 152.221 237.313L152.221 237.313L152.221 233.78z" stroke="none" fill="#935B50" fill-rule="nonzero" />
            <path transform="matrix(-1 8.742278E-08 -8.742278E-08 -1 765.712 610.26996)"  d="M378.671 238.756L387.03998 238.756L387.03998 371.51398L378.671 371.51398z" stroke="none" fill="#935B50" fill-rule="nonzero" />
            <path transform="matrix(-1 8.742278E-08 -8.742278E-08 -1 555.38 498.50797)"  d="M164.5489 238.75618L390.831 238.75618C 392.42474 238.7562 393.71674 240.04819 393.71674 241.64194L393.71674 241.64194L393.71674 259.75156L393.71674 259.75156L393.71674 259.75156L393.71674 259.75156L161.66316 259.75156L161.66316 259.75156L161.66316 259.75156L161.66316 259.75156L161.66316 241.64192C 161.66318 240.04819 162.95517 238.7562 164.5489 238.75618z" stroke="none" fill="#C38F86" fill-rule="nonzero" />
            <path d="M1 371.617L479.28 371.617" stroke="#935B50" stroke-width="2" stroke-linecap="square" fill="none" />
		</g>
	</g>
</g>
</svg>